<?xml version="1.0" encoding="UTF-8"?>
<svg id="Camada_1" data-name="Camada 1" xmlns="http://www.w3.org/2000/svg" viewBox="0 0 1366 376">
  <defs>
    <style>
      .cls-1 {
        fill: #fff;
      }
    </style>
  </defs>
  <path class="cls-1" d="m1013.69,106.64c9.16-11.88,15.23-24.15,24.84-33.92,17.75-18.04,37.72-32.2,61.47-41.95,29.73-12.2,60.28-13.58,90.9-8.91,22.11,3.37,43.07,12.44,61.7,25.58,21.6,15.23,39.68,33.77,52.22,57.23,7.44,13.91,12.27,28.92,16.93,43.92.91,2.95,1.79,3.86,4.71,4.56,17.05,4.04,23.78,13.07,23.55,30.56-.15,10.79-.02,21.59-.1,32.38-.11,13.66-7.69,24.66-20.72,24.48-12.84-.19-17.96,7.33-21.86,16.01-11.5,25.58-30.41,44.82-51.31,62.42-33.71,28.37-73.66,37.79-116.15,32.59-41.1-5.02-75.35-24.94-101.33-57.9-1.55-1.97-2.75-4.93-5.67-4.59-3.02.36-3.17,3.74-4.07,5.94-9.39,22.89-27.01,37.03-48.85,47.05-21.19,9.72-43.46,10.88-66.3,10.39-30.42-.64-60.86.17-91.29-.26-23.59-.34-48.33-18.42-57.25-41.83-3.83-10.04-4.57-19.67-4.57-29.85,0-83.62.08-167.23-.15-250.85-.02-6.96,1.64-8.98,8.85-8.92,52.33.42,104.71-1.05,156.96,1.04,26.97,1.08,50.85,12.95,68.64,35.39,11.52,14.54,14.81,31.51,18.88,49.44Zm274.62,102.08c1.92-72.52-58.86-128.51-127.17-128.89-70.68-.39-128.76,56.07-129.5,127.51-.76,73.94,58.93,130.07,127.76,130.54,68.52.47,130.33-54.97,128.91-129.16Zm-396.25,82.13v-.03c14.5,0,29-.08,43.5.02,15.67.1,27.81-7.38,34.28-20.61,12.78-26.13-6.39-52.58-32.59-53.37-30.1-.91-60.26,0-90.39-.1-5.21-.02-6.91,1.93-6.87,6.98.17,20.18.23,40.36-.03,60.54-.07,5.33,1.82,6.77,6.91,6.67,15.06-.27,30.13-.1,45.2-.1Zm-12.96-134.64v-.06c10.79,0,21.58.22,32.36-.05,19.91-.5,36.74-16.94,36.75-36.34.01-20.59-14.14-36.31-35.35-37.05-22.12-.77-44.28-.17-66.42-.34-4.13-.03-6.29.99-6.27,5.61.07,20.71-.02,41.42-.17,62.12-.03,4.79,2.15,6.28,6.74,6.18,10.78-.23,21.57-.07,32.36-.07Zm141.56,37.69c12.96-86.77,85.7-130.67,152.02-124.49,39.5,3.68,72.13,21.95,97.24,53.46,25.5,31.99,33.58,68.27,27.75,110.19,3.95-5.07,3.93-8.76,4.21-12.38,1.07-13.61.9-27.15-.04-40.83-1.72-25.06-10.68-47.49-26.07-66.39-26.31-32.31-60.55-50.6-102.99-53.37-29.7-1.94-57.34,3.36-82.9,18.32-40.12,23.47-65.1,57.71-72.29,104.17-.57,3.69-.62,7.17,3.07,11.32Zm285.17-55.41c-13.45-51.72-70.16-117.93-167.07-106.78-62.53,7.19-117.09,57.91-127.92,121.27,25.06-65.55,70.93-105.43,142.1-109.01,71.47-3.59,119.98,33.63,152.89,94.51Zm32.6,59.26c.05,0,.11,0,.16,0,0-6.26.35-12.54-.1-18.76-.42-5.77-2.08-11.13-8.79-12.98-3.65-1-6.1-1.44-5.36,3.91,2.67,19.13-.61,37.83-4.95,56.35-1,4.28.39,4.8,3.93,5.01,7.99.45,14.15-4.73,14.99-13.92.6-6.48.12-13.07.12-19.61Z"/>
  <path class="cls-1" d="m389.48,261.44c-9.52,6.78-17.69,14.12-28.35,18.32-13.68,5.39-27.54,6.35-41.68,5.72-27.96-1.24-52.72-11.06-73.15-30.3-24.92-23.46-40.07-51.85-40.6-86.82-.3-19.9-.45-39.82-.11-59.72.12-7.16-2.24-9.9-9.28-8.96-2.8.37-5.68.16-8.52.15-2.83,0-4.13,1.35-4.11,4.18.02,3.7-.1,7.39-.1,11.09,0,76.22-.11,152.44.16,228.65.03,7.17-1.92,8.96-8.94,8.8-21.03-.48-42.09-.42-63.13,0-6.57.13-8.53-1.48-8.51-8.33.26-77.92.03-155.85.36-233.78.04-8.4-1.65-11.22-10.6-10.95-23.01.71-46.07.08-69.1.38-5.67.07-7.92-1.06-7.8-7.35.4-21.61.39-43.23.02-64.84-.11-6.33,1.63-8.15,8.08-8.14,79.63.22,159.26.22,238.89.03,7.07-.02,9.29,2.22,9.24,9.32-.3,40.67-.15,81.34-.21,122.01-.02,15.88,3.42,30.92,12.7,43.88,14.02,19.59,33.78,25.62,57.1,22.72,31.18-3.88,47.46-28.93,48.25-57.1.76-27.28.21-54.6.33-81.9.12-26.48,12.25-46.65,37.59-55.71,10.61-3.79,21.94-1.08,32.94-1.52,2.27-.09,2.49,1.84,2.52,3.62.02,1.71.04,3.41.04,5.12,0,82.19-.12,164.38.2,246.57.03,7.79-2.21,9.5-9.51,9.31-18.76-.49-37.54-.36-56.3-.02-6.06.11-7.99-1.93-7.61-7.85.33-5.21.96-10.58-.78-16.59Z"/>
  <path class="cls-1" d="m751.79,352.4c-29.51,0-57.9-.04-86.3.06-3.31.01-5.25-1.44-6.91-4-19.6-30.27-39.34-60.44-58.77-90.81-5.1-7.97-10.82-13.09-21.14-11.18-7.42,1.37-17.23-3.24-22.06,1.99-4.35,4.73-1.01,14.17-1.31,21.52-.66,16.09.93,32.07-4.24,48.11-5.62,17.46-27.9,34.25-43.96,34.24-8.25,0-16.55-.48-24.74.23-7.54.65-8.76-2.43-8.73-9.18.27-58.6.22-117.2.23-175.81,0-46.37.1-92.74-.26-139.11-.06-7.17,2.02-8.95,9.03-8.91,49.78.29,99.57.07,149.35.17,26.08.05,50.98,4.85,72.77,20.27,20.3,14.38,33.97,33.41,42.36,57.07,6.61,18.66,7.13,37.6,4.34,56.21-3.23,21.54-12.6,41.1-27.89,57.46-10.72,11.47-22.82,20.59-37.55,26.08-5.71,2.13-3.15,5.91-1.4,8.84,6.45,10.82,13.15,21.5,19.9,32.13,12.27,19.3,24.67,38.51,36.96,57.79,3.25,5.1,6.33,10.31,10.31,16.81Zm-148.38-177.49c14.2-1.5,31.6.97,49.3-2.6,27.2-5.49,33.12-39.15,23.85-58.51-8.46-17.67-24.69-21.63-41.74-22.24-24.14-.86-48.33-.12-72.5-.34-5.15-.05-7.06,1.67-7.02,6.83.17,23.6.21,47.2.01,70.79-.04,4.97,1.76,6.25,6.45,6.16,12.79-.27,25.59-.09,41.64-.09Z"/>
  <path class="cls-1" d="m326.89,294.41c42.92,0,85.83.13,128.75-.14,6.4-.04,8.19,1.73,7.98,8.09-.48,14.76-.3,29.56-.06,44.33.08,4.73-1.25,6.24-6.21,6.24-86.97-.14-173.94-.11-260.91.04-5.2,0-6.81-1.54-6.67-6.81.4-14.77.55-29.57.07-44.33-.2-6.06,1.52-7.62,7.44-7.58,43.2.23,86.4.12,129.6.12v.05Z"/>
  <path class="cls-1" d="m1104.95,145.3c-1.08,4.1-1.91,8.96-5.72,11.69-12.28,8.82-17.27,21.76-20.98,35.5-2.11,7.8-9.47,13.16-16.77,11.9-8.18-1.41-14.73-8.79-13.5-16.87,3.47-22.74,12.87-42.21,32.56-55.61,4.59-3.12,9.03-4.32,14.19-1.51,5.87,3.19,9.15,8.06,10.21,14.9Zm-45.86,41.59c-.49,3.09.24,5.15,3.61,5.64,3.69.54,4.48-1.27,5.38-4.62,3.89-14.57,10.42-27.79,22.12-37.82,2.7-2.32,4.55-4.74,2.24-7.84-2.12-2.84-5.31-1.74-7.63,0-14.97,11.21-22.81,26.58-25.72,44.63Z"/>
</svg>