<svg width="60" height="60" viewBox="0 0 60 60" fill="none" xmlns="http://www.w3.org/2000/svg">
<path d="M30.1206 0C13.6583 0 0.241207 13.35 0.241207 29.73C0.241207 34.98 1.62814 40.08 4.22111 44.58L0 60L15.8291 55.86C20.201 58.23 25.1156 59.49 30.1206 59.49C46.5829 59.49 60 46.14 60 29.76C60 21.81 56.8945 14.34 51.2563 8.73C45.6181 3.09 38.1105 0 30.1206 0ZM30.1508 5.01C36.7839 5.01 42.995 7.59 47.6985 12.27C52.3719 16.95 54.9648 23.16 54.9648 29.76C54.9648 43.38 43.809 54.45 30.1206 54.45C25.6583 54.45 21.2864 53.28 17.4874 51L16.5829 50.49L7.17588 52.95L9.67839 43.83L9.07538 42.87C6.60301 39 5.27638 34.41 5.27638 29.73C5.30653 16.11 16.4322 5.01 30.1508 5.01ZM19.5377 15.99C19.0553 15.99 18.2412 16.17 17.5477 16.92C16.8844 17.67 14.9246 19.5 14.9246 23.13C14.9246 26.79 17.608 30.3 17.9397 30.81C18.3618 31.32 23.2462 38.82 30.7538 42C32.5327 42.81 33.9196 43.26 35.005 43.59C36.7839 44.16 38.4121 44.07 39.7085 43.89C41.1558 43.68 44.1105 42.09 44.7437 40.35C45.3769 38.61 45.3769 37.14 45.196 36.81C44.9849 36.51 44.5025 36.33 43.7487 36C42.995 35.58 39.3166 33.78 38.6533 33.54C37.9598 33.3 37.5377 33.18 36.9648 33.9C36.4824 34.65 35.0352 36.33 34.6131 36.81C34.1608 37.32 33.7387 37.38 33.0151 37.02C32.2312 36.63 29.8191 35.85 26.9849 33.33C24.7538 31.35 23.2764 28.92 22.8241 28.17C22.4623 27.45 22.794 27 23.1558 26.67C23.4874 26.34 23.9698 25.8 24.2714 25.35C24.6633 24.93 24.7839 24.6 25.0251 24.12C25.2663 23.61 25.1457 23.19 24.9648 22.83C24.7839 22.5 23.2764 18.78 22.6432 17.31C22.0402 15.87 21.4372 16.05 20.9548 16.02C20.5327 16.02 20.0502 15.99 19.5377 15.99Z" fill="white"/>
</svg>
